<?xml version="1.0" standalone="no"?><!DOCTYPE svg PUBLIC "-//W3C//DTD SVG 1.1//EN" "http://www.w3.org/Graphics/SVG/1.1/DTD/svg11.dtd"><svg t="1627523129942" class="icon" viewBox="0 0 1024 1024" version="1.1" xmlns="http://www.w3.org/2000/svg" p-id="3246" xmlns:xlink="http://www.w3.org/1999/xlink" width="200" height="200"><defs><style type="text/css">@font-face { font-family: feedback-iconfont; src: url("//at.alicdn.com/t/font_1031158_1uhr8ri0pk5.eot?#iefix") format("embedded-opentype"), url("//at.alicdn.com/t/font_1031158_1uhr8ri0pk5.woff2") format("woff2"), url("//at.alicdn.com/t/font_1031158_1uhr8ri0pk5.woff") format("woff"), url("//at.alicdn.com/t/font_1031158_1uhr8ri0pk5.ttf") format("truetype"), url("//at.alicdn.com/t/font_1031158_1uhr8ri0pk5.svg#iconfont") format("svg"); }
</style></defs><path d="M270.885012 96.861048l0 0 0 0 0 0 0 0Z" p-id="3247" fill="#909399"></path><path d="M512.571517 65.907059c-204.736964 0-370.715183 165.979242-370.715183 370.724393 0 94.440929 35.320437 180.625824 93.462648 246.083651 1.572822 2.690272 3.50994 5.225001 5.817496 7.531534l240.297878 251.597225c1.279133 1.864464 2.736321 3.64297 4.393054 5.298679 2.111081 2.111081 4.418636 3.90596 6.856152 5.402033 14.458293 10.06524 34.491559 8.658194 47.393403-4.242627 3.26537-3.263323 5.78782-6.987135 7.582699-10.960633L783.610536 690.24766c1.867534-1.866511 3.489474-3.88447 4.876054-6.010901 58.951647-65.640999 94.819552-152.431691 94.819552-247.604284C883.305119 231.886301 717.325877 65.907059 512.571517 65.907059zM741.283522 630.569466c-3.666506 1.765203-7.106862 4.15974-10.149151 7.202029l-33.214473 34.783201c-0.597611 0.472767-1.193175 0.947582-1.794879 1.415232L572.942489 802.454208c0.3776-0.062422 0.751107-0.135076 1.128707-0.197498l-61.670571 64.583924-61.746296-64.647369c0.125867 0.021489 0.249687 0.046049 0.37453 0.066515L327.018473 670.378124c-4.199649-3.394307-8.30413-6.9022-12.310374-10.516518l-21.097504-22.089088c-1.283226-1.283226-2.64013-2.446725-4.050246-3.502777-45.514613-52.231595-73.086575-120.503515-73.086575-195.22738 0-164.221202 133.12702-297.357432 297.367665-297.357432 164.220179 0 297.347199 133.13623 297.347199 297.357432C811.188638 512.01228 784.898879 578.833151 741.283522 630.569466zM512.390391 288.936645c-82.734306 0-149.814074 67.079768-149.814074 149.833517 0 82.754772 67.079768 149.842727 149.814074 149.842727 82.772168 0 149.851936-67.087954 149.851936-149.842727C662.242328 356.01539 595.161536 288.936645 512.390391 288.936645zM511.847016 512.137123c-40.805358 0-73.892941-33.095769-73.892941-73.91136 0-40.815591 33.087583-73.90215 73.892941-73.90215 40.824801 0 73.910337 33.086559 73.910337 73.90215C585.757353 479.041354 552.671817 512.137123 511.847016 512.137123z" p-id="3248" fill="#909399"></path></svg>