<?xml version="1.0" standalone="no"?><!DOCTYPE svg PUBLIC "-//W3C//DTD SVG 1.1//EN" "http://www.w3.org/Graphics/SVG/1.1/DTD/svg11.dtd"><svg t="1627523110562" class="icon" viewBox="0 0 1097 1024" version="1.1" xmlns="http://www.w3.org/2000/svg" p-id="2362" xmlns:xlink="http://www.w3.org/1999/xlink" width="214.2578125" height="200"><defs><style type="text/css">@font-face { font-family: feedback-iconfont; src: url("//at.alicdn.com/t/font_1031158_1uhr8ri0pk5.eot?#iefix") format("embedded-opentype"), url("//at.alicdn.com/t/font_1031158_1uhr8ri0pk5.woff2") format("woff2"), url("//at.alicdn.com/t/font_1031158_1uhr8ri0pk5.woff") format("woff"), url("//at.alicdn.com/t/font_1031158_1uhr8ri0pk5.ttf") format("truetype"), url("//at.alicdn.com/t/font_1031158_1uhr8ri0pk5.svg#iconfont") format("svg"); }
</style></defs><path d="M548.571429 0l548.571428 219.428571v73.142858h-73.142857q0 14.857143-11.714286 25.714285t-27.714285 10.857143H112.571429q-16 0-27.714286-10.857143T73.142857 292.571429h-73.142857V219.428571zM146.285714 365.714286h146.285715v438.857143h73.142857V365.714286h146.285714v438.857143h73.142857V365.714286h146.285714v438.857143h73.142858V365.714286h146.285714v438.857143h33.714286q16 0 27.714285 10.857142t11.714286 25.714286v36.571429H73.142857v-36.571429q0-14.857143 11.714286-25.714286t27.714286-10.857142h33.714285V365.714286z m911.428572 548.571428q16 0 27.714285 10.857143t11.714286 25.714286v73.142857H0v-73.142857q0-14.857143 11.714286-25.714286t27.714285-10.857143h1018.285715z" p-id="2363" fill="#909399"></path></svg>