<?xml version="1.0" standalone="no"?><!DOCTYPE svg PUBLIC "-//W3C//DTD SVG 1.1//EN" "http://www.w3.org/Graphics/SVG/1.1/DTD/svg11.dtd"><svg t="1627523091049" class="icon" viewBox="0 0 1024 1024" version="1.1" xmlns="http://www.w3.org/2000/svg" p-id="1973" xmlns:xlink="http://www.w3.org/1999/xlink" width="200" height="200"><defs><style type="text/css">@font-face { font-family: feedback-iconfont; src: url("//at.alicdn.com/t/font_1031158_1uhr8ri0pk5.eot?#iefix") format("embedded-opentype"), url("//at.alicdn.com/t/font_1031158_1uhr8ri0pk5.woff2") format("woff2"), url("//at.alicdn.com/t/font_1031158_1uhr8ri0pk5.woff") format("woff"), url("//at.alicdn.com/t/font_1031158_1uhr8ri0pk5.ttf") format("truetype"), url("//at.alicdn.com/t/font_1031158_1uhr8ri0pk5.svg#iconfont") format("svg"); }
</style></defs><path d="M892.915499 191.942567H130.4961c-36.734646 0-66.514903 29.780257-66.514903 66.514903v570.537208c0 36.734646 29.780257 66.514903 66.514903 66.514903h762.419399c36.734646 0 66.514903-29.780257 66.514903-66.514903V258.45747c0-36.735669-29.779234-66.514903-66.514903-66.514903z m-28.145013 63.960731c0.517793 0 1.032516 0.013303 1.544169 0.038885L511.87925 564.945863 157.434635 255.932973c0.401136-0.01535 0.802272-0.030699 1.206478-0.030699h706.129373z m0 575.645552H158.641113c-16.95516 0-30.699186-13.744026-30.699186-30.699186V314.877457l362.226859 315.797409c5.995551 5.995551 13.853519 8.991792 21.710464 8.991792 7.857968 0.001023 15.715937-2.996241 21.710464-8.991792l361.879958-315.49451v485.668285c0 16.95516-13.744026 30.700209-30.699186 30.700209z" fill="#909399" p-id="1974"></path></svg>